<?xml version="1.0" encoding="UTF-8" standalone="no"?>
<!DOCTYPE svg PUBLIC "-//W3C//DTD SVG 1.1//EN" "http://www.w3.org/Graphics/SVG/1.1/DTD/svg11.dtd">
<svg width="100%" height="100%" viewBox="0 0 120 120" version="1.1" xmlns="http://www.w3.org/2000/svg" xmlns:xlink="http://www.w3.org/1999/xlink" xml:space="preserve" xmlns:serif="http://www.serif.com/" style="fill-rule:evenodd;clip-rule:evenodd;stroke-linejoin:round;stroke-miterlimit:2;">
    <g transform="matrix(1,0,0,1,-390,-2.27374e-13)">
        <g id="Red-lock" serif:id="Red lock" transform="matrix(0.519481,0,0,0.533333,339.61,-48.5333)">
            <rect x="97" y="91" width="231" height="225" style="fill:none;"/>
            <clipPath id="_clip1">
                <rect x="97" y="91" width="231" height="225"/>
            </clipPath>
            <g clip-path="url(#_clip1)">
                <g transform="matrix(1.925,0,0,1.875,116.25,91)">
                    <path d="M9,41C9,18.371 27.371,0 50,0C72.629,0 91,18.371 91,41L91,60.962C96.406,64.375 100,70.402 100,77.263L100,100.737C100,111.369 91.369,120 80.737,120L19.263,120C8.631,120 0,111.369 0,100.737L0,77.263C0,70.402 3.594,64.375 9,60.962L9,41ZM71,41C71,29.41 61.59,20 50,20C38.41,20 29,29.41 29,41L29,58L71,58L71,41Z" style="fill:rgb(242,13,13);"/>
                </g>
            </g>
        </g>
    </g>
</svg>
